<?xml version="1.0" encoding="utf-8"?>
<!-- Generator: Adobe Illustrator 19.0.0, SVG Export Plug-In . SVG Version: 6.00 Build 0)  -->
<svg version="1.1" id="MotherOfBanterVector-01_xA0_Image_1_"
	 xmlns="http://www.w3.org/2000/svg" xmlns:xlink="http://www.w3.org/1999/xlink" x="0px" y="0px" viewBox="0 0 1573 144"
	 style="enable-background:new 0 0 1573 144;" xml:space="preserve">
<style type="text/css">
	.st0{fill:#FEFEFE;}
	.st1{fill:#3C3C3C;}
	.st2{fill:#2F74CC;}
	.st3{fill:#FCFCFC;}
</style>
<g>
	<g>
		<path class="st0" d="M0.2,9.1c0-2.8,0-5.5,0-8.3c0-0.5,0.1-0.7,0.6-0.6c0.2,0,0.4,0,0.6,0c523.6,0,1047.2,0,1570.9,0
			c1,0,1.2,0.2,1.2,1.2c0,47.3,0,94.6,0,142c0,1-0.2,1.2-1.2,1.2c-523.6,0-1047.2,0-1570.9,0c-1,0-1.2-0.2-1.2-1.2
			c0-11.4,0-22.9,0-34.3c0.1-0.1,0.2-0.2,0.3-0.2c0.5-0.2,1.1-0.1,1.7-0.1c4.9,0,9.8,0,14.6,0c1.7,0,1.7,0,1.7-1.7c0-20,0-40,0-60
			c0-0.5,0-1,0-1.4c0-0.6,0.1-1.2,0.8-1.4c0.7-0.2,1,0.3,1.3,0.8c1.3,2.2,2.5,4.4,3.7,6.6c6,10.6,12.1,21.3,18.1,31.9
			c1.9,3.4,3.9,6.8,5.8,10.2c0.8,1.4,0.9,1.4,1.7,0.1c9.5-16.1,19.1-32.1,28.6-48.2c0.2-0.3,0.3-0.6,0.6-0.9
			c0.6-0.6,1.5-0.4,1.8,0.4c0.2,0.6,0.1,1.2,0.1,1.8c0,19.9,0,39.8,0,59.6c0,2.1,0,2.1,2.1,2.1c4.8,0,9.6,0,14.4,0
			c1.5,0,1.6-0.1,1.6-1.6c0-32,0-64,0-96c0-1.5-0.1-1.6-1.7-1.6c-5.2,0-10.3,0.1-15.5-0.1c-2.2-0.1-3.9,0.9-5.1,2.8
			c-1.8,2.9-3.5,5.9-5.2,8.9C65.9,31.3,60,41.4,54,51.5c-1.1,1.8-2.1,3.7-3.3,5.4c-1,1.5-1.5,1.5-2.4-0.1
			c-3.4-6.2-6.9-12.4-10.4-18.6c-4.2-7.4-8.3-14.9-12.5-22.3c-0.8-1.3-1.5-2.6-2.3-3.9c-1.1-1.9-2.8-2.6-4.9-2.5c-5.3,0-10.6,0-16,0
			c-0.6,0-1.1,0.1-1.7-0.1C0.5,9.3,0.3,9.2,0.2,9.1z"/>
		<path class="st1" d="M0.2,9.1c0.1,0,0.2,0,0.3,0c0.5,0.6,0.4,1.4,0.4,2.1c0,8.2,0,16.4,0,24.6c0,23.6,0,47.2,0,70.8
			c0,0.8,0.2,1.6-0.4,2.3c-0.1,0-0.2,0-0.3,0.1C0.2,75.7,0.2,42.4,0.2,9.1z"/>
		<path class="st2" d="M966.7,107.3c-5.4-0.1-10.3-1.8-15.1-4.1c-4.2-2.1-7.9-4.9-11-8.4c-3.3-3.8-5.7-8.2-7.1-13.1
			c-0.9-3.2-1.5-6.5-1.5-9.9c-0.2-0.6,0.1-1.2-0.2-1.7c0-1.1-0.1-2.2-0.1-3.3c-0.2-0.8,0.1-1.6-0.2-2.4c0-2.4-0.1-4.8-0.1-7.2
			c-0.1-4-0.1-8,0-12c0-4,0.1-8,0.1-11.9c0.2-1.9,0-3.9,0.1-5.8c0-0.5-0.1-1,0.1-1.4c0-2.2,0.1-4.4,0-6.6c0-0.7,0.2-1,0.9-0.9
			c0.2,0,0.4,0,0.6,0c40.4,0,80.8,0,121.2,0c1.2,0,1.6,0.3,1.5,1.5c-0.1,1.4,0,2.9,0,4.3c0.1,2.1,0,4.3,0.1,6.4
			c0,0.4-0.1,0.9,0.1,1.3c0,3.8,0.1,7.7,0.1,11.5c0.1,4.2,0.1,8.5,0,12.7c0,2.2-0.1,4.5-0.1,6.7c-0.3,0.8,0,1.6-0.2,2.4
			c0,1.1-0.1,2.2-0.1,3.3c-0.2,0.5,0,1-0.2,1.5c-0.3,4.7-1.2,9.2-3.3,13.4c-3.4,6.6-8.6,11.3-15.4,14.3c-4.1,1.8-8.3,3-12.8,3.4
			c-0.4,0.1-0.8-0.1-1.2,0.2c-1.2,0-2.3,0-3.5,0c-0.4-0.2-0.8,0-1.2-0.2c-6.4-0.6-12.1-3-17.2-6.9c-1.3-1-2.4-2.1-3.7-3
			c-0.5-0.3-0.8-0.5-1.3,0.1c-3.3,4.1-7,7.8-11.4,10.6c-4,2.6-8.3,4.5-13.2,5.1c-1,0.1-2,0.2-3,0.3
			C968,107.4,967.4,107.4,966.7,107.3z"/>
		<path d="M0.5,108.9c0-7.6,0-15.2,0-22.8c0-25.7,0-51.3,0-77c6.6,0,13.3-0.3,19.9,0.2c0.9,0.1,1.4,0.5,1.9,1.1
			c1.9,2.2,3.1,4.9,4.5,7.4C34.3,31,41.7,44.3,49.2,57.6c0.1,0.2,0.2,0.3,0.4,0.6c1.9-2.8,3.6-5.7,5.2-8.5
			c7.2-12.3,14.4-24.7,21.5-37C77.9,9.9,80,8.9,83.2,9c5,0.2,10,0.1,15,0c1.1,0,1.4,0.2,1.4,1.4c0,32.4,0,64.7,0,97.1
			c0,1-0.2,1.4-1.3,1.4c-5.4-0.1-10.8-0.1-16.2,0c-1,0-1.2-0.3-1.2-1.3c0-20.6,0-41.3,0-61.9c0-0.4,0.2-0.9-0.2-1.1
			c-0.5-0.3-0.9-0.4-1.3,0.3c-5.7,9.6-11.4,19.2-17,28.8c-4.2,7-8.3,14-12.5,20.9c-0.6,1.1-0.7,1.1-1.3-0.1
			c-8.5-15-16.9-29.9-25.4-44.9c-1-1.7-1.9-3.4-2.9-5.1c-0.2-0.3-0.3-0.7-0.8-0.5C19.2,44.4,19,44.6,19,45c0,0.3,0,0.6,0,0.8
			c0,20.6,0,41.1,0,61.7c0,1.1-0.2,1.5-1.4,1.4C11.9,108.9,6.2,108.9,0.5,108.9z"/>
		<path d="M1196.6,106.8c0-32.8,0-65.7,0-98.5c0-0.9,0.2-1.1,1.1-1.1c2.3,0.1,4.6,0,6.8,0c1.6-0.1,3.2-0.1,4.8,0
			c2.1,0,4.1,0,6.2,0.1c0.6,0.3,1.2,0,1.7,0.2c2.1,1.1,3.1,3.1,4.3,5c7.3,11.2,14.6,22.4,21.9,33.6c4.6,7.1,9.2,14.2,13.9,21.3
			c0.8,1.3,1.7,2.5,2.7,3.8c0.4-0.5,0.2-1,0.2-1.4c0-20.3,0-40.6,0-60.8c0-1.3,0.3-1.5,1.5-1.5c5.3,0.1,10.6,0.1,16,0
			c1.1,0,1.5,0.2,1.5,1.4c0,25.8,0,51.5,0,77.3c0,6.6,0,13.2,0,19.8c0,1-0.2,1.4-1.3,1.4c-4.5-0.1-9,0-13.4,0c-0.7-0.2-1.3,0-2-0.2
			c-2.1,0.1-3-1.4-4-2.8c-3.8-5.8-7.6-11.7-11.4-17.6c-3.6-5.6-7.2-11.1-10.7-16.7c-4-6.2-7.9-12.4-11.8-18.5
			c-2.5-3.9-5.1-7.9-7.7-11.8c-0.3-0.4-0.6-0.9-1.2-0.5c-0.2,0.5-0.1,0.9-0.1,1.4c0,21.6,0,43.1,0,64.7c0,0.5,0.1,1-0.1,1.4l0,0
			c-0.3,0.2-0.5,0.1-0.8,0.1c-5.7,0-11.4,0-17.1,0C1197.2,106.9,1196.9,107,1196.6,106.8z"/>
		<path d="M180.5,7.2c14.8,0.1,27.6,5.3,38.1,15.8c7.5,7.5,12.3,16.5,14,27c3.2,19.5-2.9,35.7-17.7,48.7
			c-7.3,6.4-15.9,10.1-25.4,11.8c-4.3,0.7-8.6,0.9-12.9,0.6c-11.4-0.8-21.6-4.8-30.4-12.1c-8.1-6.6-13.7-14.9-16.9-24.9
			c-1.7-5.3-2.5-10.7-2.3-16.2c0.6-15.1,6.6-27.7,18-37.7c7.4-6.5,16-10.4,25.6-12.2C173.8,7.4,177.1,7,180.5,7.2z"/>
		<path d="M679.2,60.9c0-1.3,0-2.6,0-4c0.2-0.6,0-1.2,0.2-1.8c0.5-8.4,3.2-16.1,7.5-23.3c2.7-4.4,6.1-8.2,9.9-11.7
			c4.2-3.8,9-6.7,14.2-8.9c4.4-1.9,8.9-3,13.6-3.8c1.1-0.2,2.2-0.3,3.3-0.4c0.4-0.2,0.9,0,1.3-0.2c2.3,0,4.6,0,6.8,0
			c0.4,0.2,0.8,0,1.3,0.2c9.2,0.9,17.7,3.8,25.3,8.9c7.7,5.2,13.5,11.9,17.7,20.1c2.5,5,4.1,10.2,4.8,15.7c0.2,1.7,0.4,3.5,0.5,5.2
			c0.1,1.3,0.1,2.6,0,3.8c-0.5,10.9-4.1,20.8-10.8,29.4c-7.4,9.5-16.9,15.7-28.5,18.8c-3.8,1-7.7,1.5-11.6,1.7
			c-1.3,0.1-2.6,0.1-3.8,0c-3.6,0-7.1-0.5-10.5-1.3c-6.3-1.6-12.3-4.1-17.8-7.7c-3.9-2.6-7.2-5.6-10.3-9c-4.2-4.5-7.3-9.8-9.5-15.6
			c-1.4-3.4-2.2-7-2.9-10.6c-0.3-1.3-0.2-2.7-0.3-4.1C679.2,62.1,679.5,61.5,679.2,60.9z"/>
		<path d="M552.2,59.1c0-16.2,0-32.3,0-48.5c0-0.9,0.1-1.3,1.2-1.3c1.4-0.1,2.9-0.2,4.3-0.2c11.3,0,22.6,0,33.8,0
			c7.3,0,14,2,19.7,6.7c5.4,4.4,8.7,10.2,9.9,17.2c1.1,6.3,0.1,12.2-2.9,17.7c-2.8,5.3-7.1,9.2-12.2,12.2c-0.7,0.4-1.8,0.8-1.9,1.5
			c-0.1,0.7,1.1,0.8,1.8,1.2c5,3.1,8,7.7,9.9,13.1c3.4,9.7,6.9,19.4,10.4,29.1c0.5,1.4,0.5,1.4-0.9,1.4c-5.7,0-11.4-0.1-17,0
			c-1.5,0-2.3-0.7-2.8-1.9c-1.5-3-2.3-6.3-3.3-9.4c-1.7-5.2-3.1-10.5-5.1-15.5c-1.1-2.6-2.5-5-4.4-7.1c-3.1-3.2-6.8-5-11.3-5.5
			c-3-0.3-5.9-0.2-8.9,0c-1,0.1-1,0.6-1,1.3c0,12.2,0,24.3,0,36.5c0,1.1-0.3,1.4-1.4,1.4c-5.5-0.1-11-0.1-16.6,0
			c-1,0-1.3-0.2-1.3-1.3C552.3,91.5,552.2,75.3,552.2,59.1z"/>
		<path d="M1154.6,107.1c-1.8,0-2.5-1.4-3.1-2.7c-1.9-3.7-3.5-7.5-5.3-11.3c-0.5-1.1-0.9-2.3-1.5-3.4c-0.8-1.4-1.9-2.1-3.4-2.4
			c-3.5-0.2-7.1-0.2-10.6,0c-6.9,0-13.8,0-20.7,0c-3.4,0-6.7,0.1-10.1,0c-3.1-0.1-5.2,1.4-6.5,4c-2,4-3.9,8.1-5.8,12.2
			c-0.8,1.7-2.1,3-4,3.6c-0.7,0.2-1.5-0.1-2.2,0.2c-5.1,0-10.2,0-15.3,0c-0.4,0-0.9,0-1.5,0c1.4-3,2.7-6,4.1-8.9
			c1.9-4.1,3.9-8.2,5.8-12.4c2.7-5.7,5.4-11.5,8.1-17.2c2.7-5.6,5.3-11.3,8-16.9c3.1-6.6,6.2-13.2,9.3-19.8
			c3.2-6.8,6.4-13.7,9.6-20.6c0.8-1.6,1.6-3.2,3.4-4c1-0.4,2-0.6,3-0.5c3.3,0.4,6.7,0.1,10,0.2c0.8,0,1.2,0.1,1.6,0.9
			c4.6,9.7,9.2,19.5,13.8,29.2c4.8,10.1,9.6,20.3,14.4,30.5c4.8,10.2,9.6,20.4,14.4,30.6c1.4,2.9,2.7,5.8,4.2,8.9
			c-5.5,0-10.9,0-16.3,0C1156.9,107,1155.8,107.3,1154.6,107.1z"/>
		<path d="M1554.5,107.1c-2-0.1-2.8-1.7-3.3-3.2c-1.4-3.9-2.5-7.9-3.9-11.8c-1.4-4.1-2.5-8.4-4.3-12.4c-1.4-3-3.1-5.8-5.7-7.9
			c-2.6-2.2-5.6-3.6-9-3.9c-0.6-0.1-1.2-0.4-1.8-0.2c-1.4-0.2-2.8-0.2-4.3,0c-1.5,0-3,0.1-4.5,0.6c-0.2,0.4-0.1,0.9-0.1,1.3
			c0,12.1,0,24.2,0,36.3c0,1.3,0,1.3-1.4,1.3c-5.4,0-10.9,0-16.3,0c-0.4,0-0.8,0.1-1.2-0.1l0,0c-0.2-0.4-0.1-0.9-0.1-1.3
			c0-32.4,0-64.8,0-97.3c0-0.4-0.1-0.9,0.1-1.3c7.9,0,15.8,0,23.6,0c0.4,0,0.9,0,1.3,0c1.8-0.2,3.6,0.1,5.4-0.2c2,0,4,0,6,0
			c0.9,0.3,1.8,0,2.7,0.2c0.8,0,1.6,0,2.3,0.1c0.4,0.2,0.9,0,1.3,0.2c6.6,0.6,12.6,3,17.4,7.6c4.8,4.5,7.8,10,8.5,16.6
			c0.1,0.7,0.2,1.3,0.3,2c0.1,1.4,0.1,2.7,0,4.1c-0.4,5.4-2.2,10.4-5.5,14.8c-3.3,4.3-7.6,7.5-12.5,10c6.5,2.8,10.1,8,12.3,14.2
			c3.6,9.8,7,19.6,10.6,29.4c0.4,1,0.2,1.2-0.9,1.2c-4.9-0.1-9.7,0-14.6,0C1556.3,107,1555.4,107.3,1554.5,107.1z"/>
		<path d="M368.6,109c-6,0-12.1,0-18.1,0c-1.1,0-1.3-0.3-1.3-1.3c0-32.4,0-64.7,0-97.1c0-1,0.3-1.2,1.3-1.2c5.6,0,11.3,0,16.9,0
			c0.9,0,1,0.2,1,1.1c0,12.3,0,24.6,0,36.8c0,1,0.2,1.3,1.3,1.3c12.2,0,24.4,0,36.6,0c1.1,0,1.3-0.4,1.3-1.4c0-12.1,0-24.2-0.1-36.4
			c0-1.2,0.3-1.4,1.5-1.4c5.6,0.1,11.2,0,16.8,0c0.9,0,1.2,0.2,1.1,1.1c0,32.4,0,64.8,0,97.2c0,1-0.3,1.2-1.2,1.2
			c-5.6,0-11.2,0-16.8,0c-0.9,0-1.2-0.2-1.2-1.2c0-13.6,0-27.3,0.1-40.9c0-1.1-0.3-1.3-1.4-1.3c-12.1,0-24.2,0-36.2,0
			c-0.4,0-0.9,0.1-1.3,0.1c-0.2,0.4-0.1,0.9-0.1,1.3c0,13.6,0,27.2,0,40.8C368.7,108.1,368.9,108.5,368.6,109z"/>
		<path d="M524.6,25.2c-15,0-30,0-45,0c-1,0-1.2,0.3-1.2,1.2c0,7.2,0,14.3,0,21.5c0,1,0.3,1.2,1.2,1.2c14.4,0,28.7,0,43.1-0.1
			c1.3,0,1.5,0.4,1.4,1.5c-0.1,4.4-0.1,8.9,0,13.3c0,1-0.2,1.3-1.2,1.2c-14.4,0-28.7,0-43.1-0.1c-1.2,0-1.4,0.3-1.4,1.4
			c0.1,8.2,0,16.3,0,24.5c0,0.9,0.2,1.2,1.2,1.2c14.6,0,29.3,0,43.9,0c1,0,1.4,0.2,1.3,1.3c-0.1,4.9-0.1,9.8,0,14.6
			c0,0.8-0.2,1.1-1.1,1.1c-21.2,0-42.4,0-63.6,0c-1.1,0-1.1-0.5-1.1-1.3c0-31.2,0-62.5,0-93.7c0-1.4,0-2.9,0-4.3
			c0.3-0.3,0.7-0.2,1-0.2c21.2,0,42.4,0,63.7,0c0.3,0,0.6,0,0.8,0.1l0,0c0.2,4.7,0,9.3,0.1,14C524.8,24.1,524.9,24.7,524.6,25.2z"/>
		<path d="M1424,23.3c0,0.4-0.1,0.7-0.1,1.1c0,7.2,0,14.4,0,21.6c0,0.9,0.2,1.2,1.2,1.2c14.9,0,29.8,0,44.7,0
			c0.2,0.2,0.2,0.4,0.1,0.7c0,3.5,0.1,6.9-0.1,10.4c0,0.1,0,0.2,0,0.2c0,3.2-0.3,3.5-3.6,4.6c-1.1,0.2-2.1-0.1-3.2,0.2
			c-2.7,0-5.4,0-8.1,0c-10,0-20,0-30,0c-0.9,0-1.2,0.1-1.2,1.1c0,8.2,0,16.5,0,24.7c0,0.9,0.3,1.1,1.1,1.1c15.1,0,30.2,0,45.2,0
			c0.2,0.2,0.1,0.5,0.1,0.7c0,5.1,0,10.3,0,15.4c0,0.2,0,0.5-0.1,0.7c-21.8,0-43.5,0-65.3,0c-0.3-0.4-0.1-0.8-0.1-1.2
			c0-32.3,0-64.7,0-97c0-0.4-0.1-0.8,0.1-1.2c21.7,0,43.5,0,65.2,0c0.2,0.2,0.1,0.4,0.1,0.7c0,4.8,0,9.6,0,14.3c0,0.2,0,0.4-0.1,0.6
			l0,0c-0.5,0.2-0.9,0.1-1.4,0.1c-14.4,0-28.9,0-43.3,0C1424.9,23.2,1424.4,23,1424,23.3z"/>
		<path d="M832.3,108.7c-5.9,0-11.8,0-17.6,0c-1,0-1.3-0.2-1.3-1.3c0-32.2,0-64.4,0-96.6c0-0.5,0-1,0-1.4c0.3-0.3,0.7-0.2,1-0.2
			c21.2,0,42.4,0,63.5,0c0.3,0,0.6-0.1,0.9,0.1l0,0c0.2,0.3,0.1,0.5,0.1,0.8c0,5,0,9.9,0,14.9c0,0.3,0.2,0.7-0.2,0.9
			c-0.4,0-0.8-0.1-1.2-0.1c-14.6,0-29.2,0-43.8,0c-1,0-1.3,0.2-1.3,1.3c0.1,6.8,0.1,13.6,0,20.4c0,1,0.2,1.3,1.3,1.3
			c14.4,0,28.9,0,43.3-0.1c1.1,0,1.4,0.3,1.3,1.4c-0.1,4.4-0.1,8.8,0,13.2c0,1.3-0.4,1.5-1.5,1.5c-14.4,0-28.7,0-43.1,0
			c-0.4,0-0.9-0.1-1.3,0.1c-0.2,0.4-0.1,0.9-0.1,1.3c0,13.8,0,27.5,0,41.3C832.4,107.9,832.5,108.3,832.3,108.7z"/>
		<path d="M297.1,109c-6.2,0-12.5,0-18.7,0c-1,0-1.2-0.3-1.2-1.3c0-26.5,0-53,0-79.5c0-1.1-0.3-1.4-1.4-1.3c-8.2,0-16.3,0-24.5,0.1
			c-1.1,0-1.3-0.4-1.3-1.4c0.1-5,0.1-9.9,0-14.9c0-1.1,0.3-1.3,1.3-1.3c24.4,0,48.7,0,73.1,0c0.2,0.2,0.1,0.4,0.1,0.7
			c0,5.3,0,10.7,0,16c0,0.2,0,0.4-0.1,0.6c-8.7,0-17.4,0-26.1,0c-0.4,0-0.7,0.1-1.1,0.1c-0.2,0.5-0.1,0.9-0.1,1.4
			c0,26.5,0,52.9,0,79.4C297.2,108,297.3,108.5,297.1,109z"/>
		<path d="M1332.5,24.8c-0.4,0-0.9-0.1-1.3-0.1c-8.2,0-16.4,0-24.6,0c-1,0-1.2-0.3-1.2-1.2c0-5,0.1-9.9,0-14.9c0-1,0.3-1.2,1.3-1.2
			c23.9,0,47.7,0,71.6,0c0.5,0,1,0,1.4,0c0.3,0.2,0.2,0.5,0.2,0.8c0,5.2,0,10.4,0,15.5c0,0.2,0,0.5-0.1,0.7l0,0
			c-0.4,0.2-0.9,0.1-1.3,0.1c-8.2,0-16.4,0-24.6,0c-1.3,0-1.4,0-1.4,1.4c0,26.5,0,53,0,79.4c0,0.5,0.1,1-0.1,1.4l0,0
			c-0.3,0.2-0.7,0.1-1.1,0.1c-5.8,0-11.7,0-17.5,0c-1,0-1.3-0.3-1.3-1.3c0-9.2,0-18.4,0-27.6c0-17.3,0-34.7,0-52
			C1332.6,25.7,1332.7,25.2,1332.5,24.8z"/>
		<path class="st3" d="M1352.4,106.8c0-27,0-54.1,0-81.1c0-1,0.2-1.3,1.2-1.3c8.7,0,17.4,0,26.1,0c-0.4,0.4-0.9,0.2-1.4,0.2
			c-8.1,0-16.2,0-24.3,0c-1.2,0-1.4,0.3-1.4,1.5c0,26.4,0,52.8,0,79.1C1352.6,105.8,1352.8,106.4,1352.4,106.8z"/>
		<path class="st3" d="M1332.5,24.8c0.3,0.4,0.1,0.8,0.1,1.3c0,26.5,0,53,0,79.5c0,1,0.2,1.4,1.3,1.4c5.8-0.1,11.5,0,17.3,0
			c0.4,0,0.8,0,1.2-0.1c-0.3,0.3-0.7,0.2-1.1,0.2c-5.8,0-11.7,0-17.5,0c-1.1,0-1.3-0.3-1.3-1.4C1332.5,78.7,1332.5,51.8,1332.5,24.8
			z"/>
		<path class="st3" d="M1498.8,7.2c0,0.3,0,0.6,0,0.8c0,32.8,0,65.7,0,98.5c0,0.2,0,0.3,0,0.5c-0.4-0.4-0.2-0.8-0.2-1.2
			c0-32.5,0-64.9,0-97.4C1498.6,8,1498.4,7.5,1498.8,7.2z"/>
		<path class="st3" d="M1404.8,7.5c0,0.4,0,0.7,0,1.1c0,32.4,0,64.9,0,97.3c0,0.3,0,0.6,0,1c-0.4-0.3-0.3-0.8-0.3-1.2
			c0-32.3,0-64.6,0-96.9C1404.5,8.3,1404.3,7.8,1404.8,7.5z"/>
		<path class="st3" d="M297.1,109c0-0.5,0.1-1,0.1-1.5c0-26.5,0-53,0-79.4c0-0.4-0.2-0.9,0.1-1.3c0,27,0,53.9,0,80.9
			C297.4,108.1,297.5,108.6,297.1,109z"/>
		<path class="st3" d="M1215.4,106.8c0-22.1,0-44.1,0-66.2c0-0.5-0.2-1,0.2-1.4c0,0.5,0,1,0,1.4c0,21.5,0,43.1,0,64.6
			C1215.6,105.8,1215.8,106.4,1215.4,106.8z"/>
		<path class="st3" d="M524.7,9.6c-0.4,0-0.9,0-1.3,0c-20.9,0-41.8,0-62.7,0c-0.5,0-1-0.1-1.5,0.1c0.3-0.5,0.7-0.3,1.1-0.3
			c21.1,0,42.3,0,63.4,0C524,9.4,524.3,9.3,524.7,9.6z"/>
		<path class="st3" d="M878.9,9.4c-9.2,0-18.5,0-27.7,0c-12.1,0-24.2,0-36.4,0c-0.5,0-1,0.1-1.4,0.1c0.3-0.5,0.9-0.3,1.3-0.3
			c21,0,42,0,62.9,0C878.1,9.1,878.5,9,878.9,9.4z"/>
		<path class="st3" d="M1498.8,107c6,0,12,0,18,0.1c1,0,0.8-0.6,0.8-1.2c0-11.2,0-22.4,0-33.6c0-1.4-0.2-2.8,0.1-4.1
			c0,12.6,0,25.2,0,37.7c0,1.1-0.3,1.4-1.3,1.3c-5.5-0.1-10.9,0-16.4,0C1499.6,107.3,1499.2,107.4,1498.8,107z"/>
		<path class="st3" d="M1424,23.3c0.4-0.3,0.8-0.1,1.3-0.1c14.5,0,29,0,43.6,0c0.4,0,0.8,0,1.2-0.1c-0.4,0.4-0.8,0.2-1.3,0.2
			C1453.8,23.3,1438.9,23.3,1424,23.3z"/>
		<path class="st3" d="M832.3,108.7c0-0.4,0.1-0.9,0.1-1.3c0-13.8,0-27.5,0-41.3c0-0.4-0.2-0.9,0.1-1.3c0,14.2,0,28.4,0,42.6
			C832.6,107.9,832.7,108.4,832.3,108.7z"/>
		<path class="st3" d="M368.6,109c0-0.5,0.1-1,0.1-1.5c0-13.5,0-27,0-40.5c0-0.4-0.2-0.9,0.1-1.3c0,14,0,28,0,42
			C368.9,108.1,369.1,108.6,368.6,109z"/>
		<path class="st3" d="M1196.6,106.8c6.2,0,12.5,0,18.7,0c-0.3,0.4-0.7,0.2-1.1,0.2c-5.5,0-11,0-16.5,0
			C1197.4,107,1196.9,107.2,1196.6,106.8z"/>
		<path class="st3" d="M324.5,26.6c0-4.9,0.1-9.9,0.1-14.8c0-0.8,0.1-1.7-0.1-2.5c0.4,0.3,0.3,0.6,0.3,1c0,5.1,0,10.2,0,15.3
			C324.7,26,324.8,26.4,324.5,26.6z"/>
		<path class="st3" d="M1379.7,24.5c0-5.7,0-11.3,0-17c0.4,0.2,0.3,0.5,0.3,0.8c0,5.1,0,10.3,0,15.4C1380,24,1380,24.3,1379.7,24.5z
			"/>
		<path class="st3" d="M1470,106.8c0.1-5.6,0.1-11.2,0-16.8c0.3,0.3,0.2,0.7,0.2,1c0,4.9,0,9.9,0,14.8
			C1470.2,106.1,1470.3,106.5,1470,106.8z"/>
		<path class="st3" d="M878.8,25.9c0.2-0.5,0.1-0.9,0.1-1.4c0-5,0-10.1,0-15.1c0.4,0.3,0.2,0.7,0.2,1.1c0,4.7,0,9.5,0,14.2
			C879.1,25.1,879.3,25.6,878.8,25.9z"/>
		<path class="st3" d="M1470,23c0-5.2,0-10.4,0-15.6c0.4,0.2,0.3,0.6,0.3,1c0,4.6,0,9.2,0,13.7C1470.2,22.5,1470.3,22.8,1470,23z"/>
		<path class="st3" d="M524.6,25.2c0.1-5.2,0.1-10.4,0-15.6c0.3,0.3,0.2,0.7,0.2,1c0,4.5,0,9.1,0,13.6
			C524.9,24.5,525,24.9,524.6,25.2z"/>
		<path class="st3" d="M1056.3,56.1c0-4.2,0-8.5,0-12.7c0.1,0.1,0.2,0.3,0.2,0.4c0,3.9,0,7.9,0,11.8
			C1056.5,55.9,1056.4,56,1056.3,56.1z"/>
		<path class="st3" d="M931.6,45.1c0,4,0,8,0,12c-0.2-0.2-0.2-0.5-0.2-0.8c0-3.5,0-6.9,0-10.4C931.4,45.6,931.4,45.4,931.6,45.1z"/>
		<path class="st3" d="M1469.8,58.1c0-3.7-0.1-7.4-0.1-11c0.3,0.2,0.3,0.5,0.3,0.7c0,3.2,0,6.4,0,9.6
			C1470,57.7,1470,57.9,1469.8,58.1z"/>
		<path class="st3" d="M1130.8,87.3c2.7-0.3,5.4-0.1,8.1-0.2c0.8,0,1.7-0.2,2.5,0.2C1137.8,87.3,1134.3,87.3,1130.8,87.3z"/>
		<path class="st3" d="M1056.2,32c-0.3-2.6-0.2-5.1-0.2-7.7c0.4,1.3,0.1,2.7,0.2,4C1056.3,29.5,1056.2,30.7,1056.2,32z"/>
		<path class="st3" d="M931.9,25.9c0,2.4,0.1,4.8-0.2,7.3c0-2.2,0-4.3,0-6.5C931.7,26.4,931.6,26.2,931.9,25.9z"/>
		<path class="st3" d="M1529.2,7c-1.8,0.3-3.6,0.2-5.4,0.2C1525.6,6.7,1527.4,7,1529.2,7z"/>
		<path class="st3" d="M1209.4,7.2c-1.6,0-3.2,0-4.8,0C1206.2,6.8,1207.8,6.8,1209.4,7.2z"/>
		<path class="st3" d="M1567.7,37.7c0-1.4,0-2.7,0-4.1C1568,35,1568,36.3,1567.7,37.7z"/>
		<path class="st3" d="M1522.2,67.7c1.4-0.3,2.8-0.3,4.3,0C1525.1,67.7,1523.6,67.7,1522.2,67.7z"/>
		<path class="st3" d="M785.6,61c0-1.3,0-2.6,0-3.8C785.9,58.4,785.9,59.7,785.6,61z"/>
		<path class="st3" d="M730.8,110.9c1.3,0,2.6,0,3.8,0C733.4,111.2,732.1,111.2,730.8,110.9z"/>
		<path class="st3" d="M1154.6,107.1c1.1,0,2.3-0.1,3.4,0.2C1156.9,107.2,1155.8,107.5,1154.6,107.1z"/>
		<path class="st3" d="M1463,63.1c1-0.3,2.1-0.1,3.2-0.2C1465.1,63.3,1464,63,1463,63.1z"/>
		<path class="st3" d="M1537.9,7.2c-0.9,0-1.8,0.1-2.7-0.2C1536.1,7,1537,6.7,1537.9,7.2z"/>
		<path class="st3" d="M1554.5,107.1c0.9,0,1.8-0.1,2.7,0.2C1556.3,107.2,1555.4,107.5,1554.5,107.1z"/>
		<path class="st3" d="M1056.1,65.3c0-0.8-0.1-1.6,0.2-2.4C1056.2,63.6,1056.4,64.5,1056.1,65.3z"/>
		<path class="st3" d="M931.7,64.3c0.2,0.8,0.2,1.6,0.2,2.4C931.5,65.9,931.7,65.1,931.7,64.3z"/>
		<path class="st3" d="M1081.4,107.3c0.7-0.3,1.5-0.2,2.2-0.2C1082.9,107.5,1082.1,107.2,1081.4,107.3z"/>
		<path class="st3" d="M1262.4,107.1c0.7,0,1.3-0.1,2,0.2C1263.7,107.2,1263,107.5,1262.4,107.1z"/>
		<path class="st3" d="M966.7,107.3c0.6,0,1.3,0,1.9,0C968,107.6,967.4,107.6,966.7,107.3z"/>
		<path class="st3" d="M931.9,70c0.3,0.6,0.2,1.1,0.2,1.7C931.7,71.2,932,70.6,931.9,70z"/>
		<path class="st3" d="M1217.3,7.4c-0.6,0-1.2,0.1-1.7-0.2C1216.1,7.3,1216.7,7,1217.3,7.4z"/>
		<path class="st3" d="M679.2,60.9c0.2,0.6,0.2,1.1,0.2,1.7C679,62.1,679.3,61.5,679.2,60.9z"/>
		<path class="st3" d="M679.4,55.2c-0.1,0.6-0.1,1.2-0.2,1.8C679.3,56.4,679,55.8,679.4,55.2z"/>
		<path class="st3" d="M1055.8,70.1c0-0.5-0.1-1,0.2-1.5C1055.9,69.1,1056.2,69.6,1055.8,70.1z"/>
		<path class="st3" d="M1541.5,7.4c-0.4,0-0.9,0.1-1.3-0.2C1540.7,7.2,1541.1,7.1,1541.5,7.4z"/>
		<path class="st3" d="M1018.3,101.1c0.4,0,0.8-0.1,1.2,0.2C1019.2,101.2,1018.7,101.4,1018.3,101.1z"/>
		<path class="st3" d="M1023.1,101.3c0.4-0.2,0.8-0.2,1.2-0.2C1023.9,101.4,1023.5,101.2,1023.1,101.3z"/>
		<path class="st3" d="M729.2,7c-0.4,0.2-0.8,0.2-1.3,0.2C728.3,6.8,728.8,7,729.2,7z"/>
		<path class="st3" d="M737.3,7.1c-0.4,0-0.9,0-1.3-0.2C736.4,7,736.9,6.8,737.3,7.1z"/>
		<path class="st0" d="M969,42.7c6,0,10.9,0,15.8,0c0.9,0,1.2,0.1,1.3,1.1c0.1,6.4,0.3,12.8,0.1,19.2c-0.1,2.9-0.2,5.8-1.3,8.5
			c-2.5,6.4-7.4,9.7-14,10.3c-4.4,0.4-8.6-0.6-12.1-3.5c-3.1-2.6-4.8-6-5.4-10c-0.9-5.8-1.1-11.7-1.2-17.6c-0.1-2.2-0.1-4.4-0.2-6.6
			c-0.1-0.9,0.2-1.2,1.1-1.3C958.7,42.5,964.4,42.9,969,42.7z"/>
		<path class="st0" d="M1021,43c5.5,0,11,0,16.4,0c0.5,0,1.1-0.2,1.1,0.8c-0.5,6.8-0.3,13.7-1.7,20.5c-1.6,8-7.3,12.7-15.4,12.8
			c-3.9,0-7.6-0.6-10.7-3c-3.4-2.6-5.1-6.3-5.8-10.4c-1-6-1-12.1-1.2-18.2c0-0.8-0.3-1.9,0-2.3c0.5-0.5,1.6-0.2,2.4-0.2
			C1011.1,43,1016,43,1021,43z"/>
		<path class="st0" d="M147.1,60.3c-0.9-17.8,12.8-32.3,29.4-34.1c20.7-2.3,35.5,13.7,37.2,29c2.2,20.4-13.4,35.2-29.3,37
			C163.2,94.5,147.5,78.3,147.1,60.3z"/>
		<path class="st0" d="M732.5,92.2c-18.7,0-33.4-14.8-33.4-33.6c0-18.2,15.1-32.9,33.8-32.9c18.1,0,33.2,15.2,33.1,33.6
			C766.1,77.3,750.8,92.2,732.5,92.2z"/>
		<path class="st0" d="M571.4,38.7c0-4.8,0-9.7,0-14.5c0-0.8,0.2-1,1-1c4.4,0.2,8.8,0.2,13.2,0.6c3.5,0.3,7.1,0.6,10,2.9
			c4.9,3.9,7.2,9,6,15.1c-1.2,6.4-5.2,10.5-11.7,12c-2.2,0.5-4.4,0.5-6.7,0.5c-3.6,0-7.2,0-10.8,0c-0.9,0-1-0.2-1-1.1
			C571.5,48.4,571.4,43.6,571.4,38.7z"/>
		<path class="st0" d="M1119.5,35.3c5.5,11.9,10.9,23.6,16.4,35.5c-0.4,0-0.6,0-0.8,0c-10.4,0-20.7,0-31.1,0c-1,0-1-0.3-0.6-1
			c5.3-11.2,10.5-22.4,15.8-33.7C1119.2,35.9,1119.3,35.7,1119.5,35.3z"/>
		<path class="st0" d="M1517.7,36.9c0-4.7,0-9.4,0-14.1c0-0.9,0.1-1.2,1.1-1.2c3.9,0,7.7-0.4,11.6-0.2c4.6,0.2,9,1.2,12.5,4.4
			c4.5,4.2,6.3,9.3,4.7,15.3c-1.7,6-5.7,9.7-11.9,10.9c-2.2,0.4-4.5,0.3-6.7,0.3c-3.4,0-6.9-0.1-10.3,0c-1,0-1.1-0.3-1.1-1.1
			C1517.7,46.4,1517.7,41.7,1517.7,36.9z"/>
	</g>
</g>
</svg>
