<?xml version="1.0" standalone="no"?>
<!DOCTYPE svg PUBLIC "-//W3C//DTD SVG 20010904//EN"
 "http://www.w3.org/TR/2001/REC-SVG-20010904/DTD/svg10.dtd">
<svg version="1.0" xmlns="http://www.w3.org/2000/svg"
 width="2000.000000pt" height="2000.000000pt" viewBox="0 0 2000.000000 2000.000000"
 preserveAspectRatio="xMidYMid meet">
<metadata>
Created by potrace 1.11, written by Peter Selinger 2001-2013
</metadata>
<g transform="translate(0.000000,2000.000000) scale(0.100000,-0.100000)"
fill="#000000" stroke="none">
<path d="M6194 14564 c-20 -3 -34 -12 -37 -23 -3 -14 -19 -20 -63 -25 -122
-15 -372 -120 -522 -219 -345 -228 -576 -576 -649 -980 -23 -125 -23 -371 0
-494 99 -536 483 -973 1009 -1148 396 -131 816 -100 1180 86 403 207 683 574
780 1022 18 85 22 133 22 292 0 212 -16 314 -75 482 -178 505 -637 881 -1199
983 -111 20 -376 34 -446 24z m461 -584 c333 -90 598 -361 682 -697 24 -94 24
-332 0 -426 -54 -217 -202 -433 -381 -556 -66 -45 -221 -118 -290 -136 -302
-77 -611 -14 -844 170 -284 225 -418 650 -316 1001 96 334 385 591 739 660
101 20 307 12 410 -16z"/>
<path d="M1560 14500 c-47 -4 -117 -8 -157 -9 -62 -1 -74 -4 -87 -23 -14 -20
-16 -169 -16 -1400 0 -1365 0 -1378 20 -1398 18 -18 35 -20 218 -22 266 -3
263 -3 290 27 l22 26 0 887 c0 488 4 893 9 901 10 16 -26 78 466 -792 325
-575 379 -665 390 -650 6 10 198 333 426 717 l414 700 7 -55 c3 -30 12 -336
19 -680 10 -516 10 -652 -1 -771 -16 -174 -10 -226 32 -273 44 -51 87 -59 248
-47 74 5 156 9 182 9 56 -2 85 21 97 74 3 19 4 628 1 1354 -5 1258 -6 1322
-23 1349 -29 44 -78 58 -243 69 -175 12 -251 0 -335 -54 -70 -45 -105 -93
-232 -324 -106 -194 -202 -359 -479 -825 -57 -96 -108 -175 -113 -174 -15 1
-503 872 -601 1071 -131 266 -185 312 -373 318 -53 2 -134 0 -181 -5z"/>
<path d="M13145 14500 c-33 -4 -102 -8 -153 -9 -51 -1 -102 -5 -112 -11 -39
-21 -41 -60 -39 -569 2 -443 0 -492 -15 -515 -9 -15 -24 -26 -34 -27 -98 -5
-982 -3 -999 3 -12 4 -27 17 -33 28 -8 15 -11 166 -10 513 1 510 -2 547 -40
567 -11 6 -118 10 -248 10 -211 0 -232 -2 -253 -19 l-24 -19 0 -1382 0 -1382
22 -17 c19 -16 47 -18 253 -18 227 0 233 0 258 22 l27 23 2 579 2 578 25 21
c24 21 29 21 517 22 272 0 504 -4 517 -9 14 -5 25 -20 28 -38 4 -16 7 -284 8
-596 l1 -567 22 -18 c20 -15 46 -17 254 -17 226 0 232 1 258 23 l26 22 5 1344
c5 1246 4 1346 -11 1385 -11 27 -28 47 -48 57 -38 20 -127 27 -206 16z"/>
<path d="M8493 14480 c-56 -12 -88 -34 -109 -78 -15 -31 -18 -62 -16 -196 1
-173 8 -197 60 -217 17 -7 143 -10 337 -9 374 2 341 4 365 -20 20 -20 20 -33
20 -967 0 -573 -4 -991 -10 -1057 -21 -213 23 -292 162 -297 62 -3 343 10 376
17 50 10 50 -5 46 1074 -3 553 -5 1043 -6 1090 -5 174 43 197 339 168 155 -15
341 -1 382 30 57 42 65 72 69 249 l4 162 -30 31 -30 30 -959 -1 c-527 -1 -977
-5 -1000 -9z"/>
<path d="M14319 14471 l-24 -19 -2 -1364 c-3 -1462 -5 -1400 47 -1425 19 -9
252 -12 897 -14 815 -2 873 -1 898 15 49 32 56 67 48 258 -6 161 -8 174 -29
195 l-23 23 -613 0 c-337 0 -623 3 -634 6 -12 3 -26 15 -30 27 -15 35 -10 695
5 710 9 9 163 13 604 17 643 5 627 4 670 61 15 21 21 53 28 145 10 136 4 195
-21 227 l-18 22 -626 5 c-462 4 -628 8 -637 17 -15 15 -20 576 -5 611 5 12 19
25 30 28 12 2 280 6 596 7 553 2 577 3 615 22 70 35 80 66 80 248 0 155 -1
159 -24 178 -22 18 -51 19 -916 19 -864 0 -894 -1 -916 -19z"/>
<path d="M16950 14470 c-20 -20 -20 -33 -20 -1399 0 -1310 1 -1380 18 -1401
17 -22 22 -22 252 -22 l234 0 23 27 23 26 0 518 c0 514 0 518 21 537 19 17 37
19 158 19 116 0 146 -3 203 -23 166 -57 282 -176 357 -365 27 -67 100 -296
191 -595 17 -57 40 -112 51 -123 18 -18 35 -19 313 -19 l293 0 -57 138 c-31
75 -103 270 -159 432 -56 162 -125 341 -152 396 -58 120 -139 214 -231 271
-52 32 -58 39 -43 48 255 146 395 318 462 566 25 93 22 279 -5 382 -65 241
-258 456 -489 545 -157 61 -174 62 -828 62 -582 0 -595 0 -615 -20z m1077
-418 c125 -40 221 -123 276 -240 30 -63 32 -74 32 -177 0 -103 -2 -114 -32
-177 -43 -91 -101 -151 -187 -193 -92 -45 -162 -55 -408 -55 -166 0 -199 2
-212 16 -14 13 -16 65 -16 419 l0 404 23 16 c19 15 49 16 242 12 185 -4 230
-8 282 -25z"/>
<path d="M6120 11270 c-307 -54 -594 -204 -815 -425 -170 -171 -280 -347 -354
-570 -56 -168 -74 -280 -74 -460 -1 -397 142 -736 432 -1025 186 -185 365
-297 601 -373 174 -57 279 -72 490 -71 204 1 295 15 473 74 501 167 882 593
994 1112 26 120 26 448 -1 568 -136 625 -639 1091 -1270 1179 -120 17 -355 12
-476 -9z m519 -549 c327 -96 569 -339 663 -667 19 -67 23 -103 23 -234 0 -131
-4 -168 -23 -240 -87 -321 -345 -580 -667 -672 -69 -20 -103 -23 -250 -23
-147 0 -181 3 -249 23 -456 132 -741 550 -686 1007 32 272 169 512 376 661 83
60 232 128 324 149 41 9 80 19 85 21 6 2 82 2 170 0 127 -3 175 -8 234 -25z"/>
<path d="M8709 11229 c-15 -6 -32 -22 -38 -37 -8 -20 -11 -405 -9 -1390 l3
-1364 25 -21 c25 -21 33 -22 253 -21 219 0 229 1 249 22 21 21 21 21 19 597
-2 514 -1 579 13 601 l16 24 559 0 c335 0 580 4 612 10 98 19 119 65 119 266
0 132 -11 166 -61 183 -22 8 -218 11 -630 11 -530 0 -599 2 -613 16 -14 13
-16 54 -16 297 0 155 4 287 8 293 22 34 53 37 302 31 135 -3 398 -3 585 1 299
7 344 10 373 25 57 31 67 69 67 254 0 156 -1 163 -23 185 l-23 23 -882 2
c-555 1 -892 -2 -908 -8z"/>
<path d="M8575 7740 c-97 -15 -145 -38 -160 -75 -11 -26 -14 -275 -16 -1363
-1 -1291 -1 -1332 18 -1364 36 -64 66 -70 289 -62 184 7 198 8 223 30 l26 22
5 953 5 954 76 -115 c532 -804 754 -1150 894 -1395 99 -172 141 -232 209 -300
73 -71 157 -119 252 -141 94 -22 322 -12 357 16 l22 18 3 1359 c2 965 0 1369
-8 1396 -8 26 -19 41 -36 47 -14 6 -124 10 -244 10 -200 0 -220 -2 -241 -19
l-24 -19 -3 -893 -2 -893 -285 427 c-316 473 -456 693 -595 932 -130 224 -215
328 -328 398 -106 68 -289 99 -437 77z"/>
<path d="M6120 7726 c-66 -14 -86 -25 -122 -63 -16 -17 -131 -249 -272 -548
-353 -754 -740 -1573 -958 -2027 -44 -93 -78 -174 -75 -181 6 -17 346 -43 434
-34 94 10 160 34 198 73 44 44 63 81 114 227 58 163 101 249 131 264 19 10
174 13 660 13 585 0 638 -1 669 -18 40 -20 37 -15 156 -275 52 -114 101 -217
108 -227 27 -45 56 -49 350 -49 170 0 277 3 277 9 0 11 -104 233 -530 1130
-264 557 -497 1056 -656 1405 -61 135 -75 157 -134 216 -55 56 -74 68 -126 82
-69 20 -145 21 -224 3z m324 -1249 c155 -337 200 -443 204 -484 l4 -51 -38
-12 c-27 -7 -163 -10 -434 -8 l-395 3 2 21 c3 24 444 964 452 964 4 0 96 -195
205 -433z"/>
<path d="M11538 7717 c-51 -30 -60 -70 -57 -251 2 -173 10 -220 39 -236 11 -6
150 -10 349 -10 346 0 374 -3 388 -44 4 -12 8 -522 8 -1134 l0 -1114 25 -21
c24 -21 33 -22 263 -21 225 0 239 1 258 21 20 20 20 27 22 1147 l2 1128 25 20
c23 19 34 19 295 13 387 -10 383 -10 413 12 14 11 35 31 46 46 22 30 23 48 14
276 -5 124 -7 136 -27 152 -12 10 -37 21 -54 24 -18 2 -470 6 -1006 7 -917 3
-976 2 -1003 -15z"/>
<path d="M14354 7723 c-12 -2 -30 -13 -40 -25 -18 -19 -19 -72 -22 -1378 -1
-891 1 -1367 8 -1385 21 -56 14 -55 811 -55 401 0 783 -2 848 -6 146 -8 183 4
214 74 17 39 18 56 12 126 -5 45 -9 120 -9 168 -1 77 -4 91 -24 110 l-23 23
-629 5 c-474 4 -632 8 -641 17 -9 9 -12 101 -12 358 0 299 2 348 15 362 14 13
86 15 594 17 642 1 641 1 677 64 14 24 22 65 28 150 13 173 3 220 -55 242 -18
6 -237 10 -630 10 -531 0 -605 2 -616 15 -10 12 -13 87 -14 307 -1 268 0 294
17 315 l18 23 567 0 c354 0 584 4 612 11 87 20 106 57 115 224 9 153 -2 200
-50 221 -29 12 -170 14 -892 13 -472 -1 -868 -4 -879 -6z"/>
<path d="M16987 7710 l-27 -21 0 -1383 c0 -1156 2 -1385 14 -1401 12 -17 31
-19 242 -20 126 -1 239 3 250 8 12 5 27 20 33 34 8 16 11 181 11 533 l0 509
26 20 c22 18 41 21 114 21 202 0 353 -50 451 -150 100 -103 142 -205 331 -815
36 -116 48 -142 68 -152 31 -16 580 -19 580 -3 0 19 -321 903 -351 966 -57
121 -155 227 -257 278 -18 9 -30 21 -27 27 4 5 32 25 63 45 361 230 509 595
387 954 -92 272 -297 460 -584 538 l-96 26 -600 4 c-600 3 -601 3 -628 -18z
m1025 -411 c137 -28 252 -118 315 -246 105 -212 15 -463 -202 -565 -59 -27
-81 -31 -203 -39 -228 -14 -364 -11 -390 7 l-22 15 0 408 c0 303 3 410 12 419
16 16 415 17 490 1z"/>
<path d="M3286 7389 c-94 -12 -233 -61 -319 -111 -83 -48 -217 -174 -288 -270
-28 -37 -58 -68 -68 -68 -9 0 -44 23 -76 51 -280 237 -615 299 -963 178 -312
-109 -521 -324 -611 -626 -52 -176 -53 -191 -58 -940 l-5 -703 30 -30 30 -30
1712 0 c1875 0 1760 -4 1777 58 5 15 8 365 8 777 0 813 1 802 -57 980 -66 207
-187 396 -333 518 -85 71 -257 158 -370 186 -87 22 -236 42 -300 40 -22 -1
-71 -6 -109 -10z m205 -729 c130 -24 256 -123 314 -246 43 -91 54 -182 61
-510 l7 -301 -24 -16 c-21 -15 -69 -17 -466 -17 -430 0 -444 1 -463 20 -19 19
-20 33 -20 268 0 368 21 492 104 616 99 147 296 222 487 186z m-1450 -134 c85
-18 140 -46 201 -103 126 -119 174 -308 166 -656 -3 -153 -4 -160 -27 -178
-22 -18 -45 -19 -460 -19 -361 0 -441 2 -457 14 -18 14 -19 26 -16 248 2 142
9 261 17 306 54 281 299 446 576 388z"/>
</g>
</svg>
